<svg width="694" height="585" viewBox="0 0 694 585" fill="none" xmlns="http://www.w3.org/2000/svg">
<path d="M38.7617 193.452V564.138" stroke="white" stroke-width="40.8845" stroke-miterlimit="10" stroke-linecap="round"/>
<path d="M20.4844 20.8291C20.4844 20.8291 91.8774 46.3023 127.399 63.0185C142.448 70.1002 181.063 87.4167 210.589 111.744C227.12 125.364 253.434 150.518 270.478 178.269C280.476 194.549 300.943 229.332 306.709 266.273C310.287 289.194 313.357 326.968 304.49 356.047C299.192 373.422 283.801 403.413 261.721 427.618C250.408 440.019 225.144 462.287 197.622 479.877C130.988 522.464 42.2894 564.138 42.2894 564.138" stroke="white" stroke-width="40.8845" stroke-miterlimit="10" stroke-linecap="round"/>
<path d="M431.148 217.074H672.821" stroke="white" stroke-width="40.8845" stroke-miterlimit="10" stroke-linecap="round"/>
<path d="M672.821 564.139H431.148" stroke="white" stroke-width="40.8845" stroke-miterlimit="10" stroke-linecap="round"/>
<path d="M431.148 20.8291H672.821" stroke="white" stroke-width="40.8845" stroke-miterlimit="10" stroke-linecap="round"/>
<path d="M431.148 220.709V564.139" stroke="white" stroke-width="40.8845" stroke-miterlimit="10" stroke-linecap="round"/>
</svg>
